<svg width="6" height="12" viewBox="0 0 6 12" fill="none" xmlns="http://www.w3.org/2000/svg">
<path d="M0.00459036 11.1973C0.0147723 11.2076 0.326877 11.2858 0.698095 11.3711C1.06936 11.4564 1.37713 11.5132 1.38208 11.4973C1.38698 11.4815 1.4254 11.2238 1.4674 10.9247C1.55178 10.3241 1.75608 9.62291 1.97438 9.18436C2.65483 7.81761 3.87567 6.91262 5.3564 6.67741L5.73346 6.6175V6.01373V5.40992L5.3917 5.35258C3.15266 4.97694 1.69291 3.30279 1.41984 0.797409C1.40202 0.633809 1.38071 0.5 1.37251 0.5C1.29699 0.5 0.0457418 0.801548 0.0220781 0.825437C0.00496676 0.84271 0.0176953 0.996078 0.0504096 1.1662C0.412482 3.04996 1.38208 4.83901 3.94451 6.01373C2.36671 6.6175 0.811229 8.43117 0.31844 9.84108C0.178014 10.2428 -0.0338749 11.1585 0.00459036 11.1973Z" fill="#EB2027"/>
</svg>
