<svg width="16" height="15" viewBox="0 0 16 15" fill="none" xmlns="http://www.w3.org/2000/svg">
<g clip-path="url(#clip0_371_548)">
<path d="M1.25 15L14.75 15C14.9489 15 15.1397 14.921 15.2803 14.7803C15.421 14.6397 15.5 14.4489 15.5 14.25L15.5 3C15.5 2.80109 15.421 2.61032 15.2803 2.46967C15.1397 2.32902 14.9489 2.25 14.75 2.25L11.75 2.25V0.75C11.75 0.551088 11.671 0.360322 11.5303 0.21967C11.3897 0.0790176 11.1989 0 11 0C10.8011 0 10.6103 0.0790176 10.4697 0.21967C10.329 0.360322 10.25 0.551088 10.25 0.75V2.25L5.75 2.25V0.75C5.75 0.551088 5.67098 0.360322 5.53033 0.21967C5.38968 0.0790176 5.19891 0 5 0C4.80109 0 4.61032 0.0790176 4.46967 0.21967C4.32902 0.360322 4.25 0.551088 4.25 0.75V2.25L1.25 2.25C1.05109 2.25 0.860322 2.32902 0.71967 2.46967C0.579018 2.61032 0.5 2.80109 0.5 3L0.5 14.25C0.5 14.4489 0.579018 14.6397 0.71967 14.7803C0.860322 14.921 1.05109 15 1.25 15ZM2 3.75L14 3.75L14 6L2 6L2 3.75ZM2 7.5L14 7.5V13.5L2 13.5L2 7.5Z" fill="#EB2027"/>
</g>
<defs>
<clipPath id="clip0_371_548">
<rect width="15" height="15" fill="white" transform="translate(0.5)"/>
</clipPath>
</defs>
</svg>
