<svg width="40" height="40" viewBox="0 0 40 40" fill="none" xmlns="http://www.w3.org/2000/svg">
<g clip-path="url(#clip0_272_112)">
<path d="M0.977316 29.774C1.25655 27.9653 1.7452 26.2957 1.81501 24.6262C1.81501 23.1653 1.53578 21.6349 1.04712 20.2436C-2.30366 11.4088 2.93194 2.08704 12.2164 0.278346C20.3839 -1.25209 28.5515 4.80009 29.459 13.0088C30.2967 21.1479 25.0611 28.0349 16.8935 29.287C14.171 29.7044 11.5183 29.3566 9.00524 28.2436C8.02793 27.8262 7.32985 27.8957 6.49215 28.5914C4.81676 29.9827 2.86213 30.261 0.977316 29.774ZM6.84119 16.9044C8.02793 16.9044 9.00524 16.0001 9.00524 14.8175C9.00524 13.7044 8.09774 12.661 6.911 12.661C5.72426 12.661 4.74695 13.5653 4.74695 14.7479C4.74695 15.9305 5.65445 16.9044 6.84119 16.9044ZM14.7993 12.661C13.6126 12.661 12.6353 13.5653 12.6353 14.7479C12.6353 15.9305 13.5428 16.8349 14.7295 16.9044C15.9162 16.9044 16.8935 16.0001 16.8935 14.8175C16.8935 13.6349 15.9162 12.661 14.7993 12.661ZM22.6876 12.661C21.5009 12.661 20.5236 13.5653 20.5236 14.7479C20.5236 15.9305 21.4311 16.9044 22.6178 16.9044C23.8045 16.9044 24.7819 16.0001 24.7819 14.8175C24.7819 13.6349 23.8743 12.661 22.6876 12.661Z" fill="#EB2027"/>
<path d="M12.4956 32C18.3595 32.5565 23.3857 30.887 27.4345 26.6435C31.4834 22.4 32.8097 17.3217 31.972 11.4783C32.3211 11.687 32.6003 11.8261 32.8097 11.9652C38.7434 15.4435 41.2565 22.1217 39.3019 29.0783C38.9529 30.4 38.534 31.6522 38.3246 32.9739C37.9755 35.2696 38.3944 37.4261 39.3717 39.5826C38.185 40.0696 37.068 40.0696 35.9511 39.6522C35.1134 39.3739 34.2757 39.0261 33.6474 38.4696C32.8796 37.8435 32.1815 37.7044 31.274 38.1217C24.7818 40.9739 17.1029 38.6783 13.1239 32.8348C12.8446 32.6261 12.705 32.3478 12.4956 32Z" fill="#EB2027"/>
</g>
<defs>
<clipPath id="clip0_272_112">
<rect width="40" height="40" fill="white"/>
</clipPath>
</defs>
</svg>
