<svg width="16" height="16" viewBox="0 0 16 16" fill="none" xmlns="http://www.w3.org/2000/svg">
<path d="M14.4887 2.40003V11.4667H4.51534L4.062 11.8822L2.39978 13.4689V2.40003H14.4887ZM15.2442 0.888916H1.64423C1.44384 0.888916 1.25166 0.968519 1.10997 1.11021C0.968275 1.25191 0.888672 1.44409 0.888672 1.64447V15.2445C0.888672 15.4449 0.968275 15.637 1.10997 15.7787C1.25166 15.9204 1.44384 16 1.64423 16C1.84352 15.9972 2.03362 15.9157 2.17312 15.7734L5.11978 12.9778H15.2442C15.4446 12.9778 15.6368 12.8982 15.7785 12.7565C15.9202 12.6148 15.9998 12.4226 15.9998 12.2222V1.64447C15.9998 1.44409 15.9202 1.25191 15.7785 1.11021C15.6368 0.968519 15.4446 0.888916 15.2442 0.888916Z" fill="#EB2027"/>
<path d="M11.466 4.53341H5.42157C4.93065 4.53341 4.53268 4.93138 4.53268 5.4223C4.53268 5.91322 4.93065 6.31119 5.42157 6.31119H11.466C11.9569 6.31119 12.3549 5.91322 12.3549 5.4223C12.3549 4.93138 11.9569 4.53341 11.466 4.53341Z" fill="#EB2027" stroke="#EB2027" stroke-width="0.266667"/>
<path d="M8.44379 7.55581H5.42157C4.93065 7.55581 4.53268 7.95378 4.53268 8.4447C4.53268 8.93562 4.93065 9.33359 5.42157 9.33359H8.44379C8.93471 9.33359 9.33268 8.93562 9.33268 8.4447C9.33268 7.95378 8.93471 7.55581 8.44379 7.55581Z" fill="#EB2027" stroke="#EB2027" stroke-width="0.266667"/>
</svg>
