<svg width="30" height="30" viewBox="0 0 30 30" fill="none" xmlns="http://www.w3.org/2000/svg">
<path d="M24.4855 6.80695H5.67677C5.42735 6.80695 5.18814 6.90603 5.01178 7.08239C4.83541 7.25876 4.73633 7.49796 4.73633 7.74738V22.7944C4.73633 23.0438 4.83541 23.283 5.01178 23.4594C5.18814 23.6358 5.42735 23.7348 5.67677 23.7348H24.4855C24.735 23.7348 24.9742 23.6358 25.1505 23.4594C25.3269 23.283 25.426 23.0438 25.426 22.7944V7.74738C25.426 7.49796 25.3269 7.25876 25.1505 7.08239C24.9742 6.90603 24.735 6.80695 24.4855 6.80695ZM23.5451 21.854H6.61721V12.8982L14.7313 16.1446C14.956 16.2336 15.2063 16.2336 15.431 16.1446L23.5451 12.8982V21.854ZM23.5451 10.8725L15.0812 14.258L6.61721 10.8725V8.68782H23.5451V10.8725Z" fill="#EB2027"/>
</svg>
