<svg width="30" height="30" viewBox="0 0 30 30" fill="none" xmlns="http://www.w3.org/2000/svg">
<path d="M17.2239 9.07191C18.1812 9.25867 19.0609 9.72683 19.7506 10.4165C20.4402 11.1061 20.9084 11.9858 21.0951 12.9431M17.2239 5.15176C19.2127 5.3727 21.0672 6.26329 22.4831 7.67733C23.8989 9.09135 24.7919 10.9448 25.0152 12.9333M21.5851 23.7725C13.1956 23.7725 6.39453 16.9714 6.39453 8.58189C6.39453 8.20338 6.40838 7.82811 6.43558 7.45654C6.46681 7.03012 6.48242 6.81691 6.59416 6.62283C6.68672 6.46208 6.85074 6.30964 7.01781 6.22907C7.21954 6.1318 7.45481 6.1318 7.92536 6.1318H10.6864C11.0821 6.1318 11.28 6.1318 11.4496 6.19692C11.5994 6.25445 11.7328 6.34789 11.8381 6.46903C11.9572 6.60617 12.0248 6.79211 12.1601 7.16398L13.3029 10.3068C13.4602 10.7395 13.5389 10.9558 13.5256 11.1611C13.5138 11.342 13.452 11.5162 13.3471 11.6642C13.2282 11.832 13.0308 11.9504 12.636 12.1873L11.2947 12.9921C12.4726 15.5881 14.5779 17.6961 17.1749 18.8723L17.9797 17.531C18.2166 17.1361 18.335 16.9388 18.5028 16.8199C18.6508 16.715 18.8249 16.6532 19.0059 16.6414C19.2112 16.6281 19.4275 16.7068 19.8602 16.8641L23.003 18.0069C23.3748 18.1421 23.5608 18.2098 23.698 18.3289C23.8191 18.4342 23.9126 18.5676 23.97 18.7174C24.0352 18.887 24.0352 19.0848 24.0352 19.4806V22.2416C24.0352 22.7122 24.0352 22.9475 23.9379 23.1491C23.8573 23.3162 23.7049 23.4803 23.5442 23.5728C23.35 23.6845 23.1369 23.7001 22.7105 23.7314C22.3388 23.7586 21.9636 23.7725 21.5851 23.7725Z" stroke="#EB2027" stroke-width="1.86207" stroke-linecap="round" stroke-linejoin="round"/>
</svg>
