<svg width="16" height="17" viewBox="0 0 16 17" fill="none" xmlns="http://www.w3.org/2000/svg">
<path d="M7.959 7.89094H7.95916C8.66478 7.89094 9.35455 7.6817 9.94126 7.28967C10.528 6.89765 10.9852 6.34046 11.2553 5.68855C11.5253 5.03664 11.5959 4.3193 11.4583 3.62724C11.3206 2.93518 10.9808 2.29948 10.4819 1.80053C9.98294 1.30158 9.34724 0.961796 8.65518 0.824136C7.96312 0.686477 7.24578 0.757128 6.59387 1.02716C5.94196 1.29719 5.38477 1.75446 4.99275 2.34117C4.60073 2.92787 4.39148 3.61764 4.39148 4.32326L4.39148 4.32342C4.39262 5.26924 4.76884 6.17599 5.43764 6.84478C6.10643 7.51358 7.01319 7.8898 7.959 7.89094ZM14.2743 12.5657V12.5655C14.2732 11.6197 13.897 10.713 13.2282 10.0442C12.5594 9.37537 11.6526 8.99914 10.7068 8.99801H10.7066H5.21169H5.21153C4.26571 8.99914 3.35896 9.37537 2.69016 10.0442C2.02137 10.713 1.64514 11.6197 1.64401 12.5655V12.5657V15.3132C1.64401 15.5307 1.73042 15.7393 1.88424 15.8931C2.03806 16.0469 2.24668 16.1334 2.46421 16.1334H13.4541C13.6716 16.1334 13.8803 16.0469 14.0341 15.8931C14.1879 15.7393 14.2743 15.5307 14.2743 15.3132V12.5657ZM7.95916 2.39599C8.34034 2.39599 8.71296 2.50902 9.0299 2.72079C9.34683 2.93256 9.59386 3.23356 9.73973 3.58573C9.8856 3.93789 9.92377 4.3254 9.8494 4.69925C9.77504 5.07311 9.59148 5.41651 9.32195 5.68605C9.05241 5.95558 8.70901 6.13914 8.33515 6.2135C7.9613 6.28787 7.57379 6.2497 7.22163 6.10383C6.86946 5.95796 6.56846 5.71093 6.35669 5.394C6.14492 5.07706 6.03189 4.70444 6.03189 4.32326C6.03189 3.81212 6.23494 3.32191 6.59637 2.96047C6.95781 2.59904 7.44802 2.39599 7.95916 2.39599ZM3.28441 12.5657C3.28441 12.0545 3.48747 11.5643 3.8489 11.2029C4.21033 10.8415 4.70054 10.6384 5.21169 10.6384H10.7066C11.2178 10.6384 11.708 10.8415 12.0694 11.2029C12.4309 11.5643 12.6339 12.0545 12.6339 12.5657V14.493H3.28441V12.5657Z" fill="#EB2027" stroke="#EB2027" stroke-width="0.266667"/>
</svg>
